<?xml version="1.0" standalone="no"?>
<!DOCTYPE svg PUBLIC "-//W3C//DTD SVG 20010904//EN"
 "http://www.w3.org/TR/2001/REC-SVG-20010904/DTD/svg10.dtd">
<svg version="1.0" xmlns="http://www.w3.org/2000/svg"
 width="300.000000pt" height="250.000000pt" viewBox="0 0 600.000000 450.000000"
 preserveAspectRatio="xMidYMid meet">

<g transform="translate(0.000000,450.000000) scale(0.100000,-0.100000)"
fill="#000000" stroke="none">
<path fill="#ff4c74" d="M3255 3117 c-50 -28 -95 -110 -95 -173 0 -47 7 -55 60 -64 29 -5 35
-10 34 -30 -1 -14 -4 -33 -8 -42 -6 -14 -1 -21 20 -30 16 -6 31 -12 34 -12 3
-1 10 -4 15 -7 6 -3 25 -6 43 -7 28 -2 32 1 32 22 0 36 23 50 60 37 54 -18 90
11 115 94 10 36 12 61 6 89 -27 114 -207 184 -316 123z m269 -79 c9 -12 16
-29 16 -38 -1 -11 -4 -9 -12 5 -6 11 -22 33 -37 49 -23 26 -24 28 -4 17 12 -6
29 -21 37 -33z m-190 -10 c36 -51 10 -108 -47 -108 -84 0 -99 29 -46 93 35 43
70 48 93 15z m156 -43 c18 -22 18 -124 0 -135 -15 -9 -78 18 -99 44 -20 24 -5
64 32 86 39 24 51 25 67 5z m-130 -105 c0 -5 -7 -7 -15 -4 -8 4 -15 8 -15 10
0 2 7 4 15 4 8 0 15 -4 15 -10z"/>
<path fill="#ff4c74" d="M3990 3116 c0 -2 7 -17 15 -32 8 -16 15 -43 15 -60 0 -27 4 -32 29
-37 22 -5 32 -14 41 -42 6 -19 17 -35 24 -35 7 0 21 -8 30 -19 9 -10 30 -21
47 -25 26 -5 70 -57 93 -110 3 -7 9 -4 17 8 35 56 66 80 107 80 23 1 47 7 54
14 6 6 20 12 30 12 9 0 22 9 28 20 6 11 22 23 35 26 21 5 25 12 25 40 0 34 34
119 51 130 5 3 9 10 9 15 0 6 -16 -2 -35 -16 -19 -15 -53 -32 -76 -39 -35 -10
-43 -19 -54 -50 -16 -47 -40 -73 -87 -97 -40 -20 -41 -19 -38 21 1 20 -1 23
-11 13 -20 -20 -47 -15 -56 10 -6 19 -8 16 -13 -18 -4 -32 -9 -40 -25 -40 -24
0 -62 70 -73 135 l-7 43 -69 19 c-38 10 -77 23 -87 29 -11 5 -19 8 -19 5z"/>
<path fill="#ff4c74" d="M2539 3069 c-20 -22 -36 -29 -62 -29 -26 0 -37 -5 -41 -18 -4 -10
-22 -33 -41 -52 -34 -33 -35 -33 -55 -15 -11 10 -20 31 -20 47 0 37 -19 36
-26 -2 -8 -37 -16 -38 -34 -5 -7 14 -19 25 -27 25 -16 0 -16 -2 -2 -33 8 -18
8 -30 -1 -46 -14 -27 -36 -22 -98 20 -34 23 -47 27 -62 19 -21 -11 -64 1 -92
27 -28 25 -21 -1 6 -26 14 -13 30 -36 36 -52 9 -20 19 -29 36 -29 13 0 29 -9
36 -20 7 -11 23 -20 35 -20 13 0 32 -9 43 -20 l21 -21 19 23 c11 13 19 18 20
12 0 -6 11 -16 24 -22 13 -6 27 -20 31 -31 9 -30 55 -29 55 2 0 12 8 34 18 49
16 25 20 26 37 14 18 -13 21 -11 37 15 10 16 25 29 33 29 9 0 20 12 25 26 6
14 19 28 30 31 11 3 20 14 20 24 0 10 7 37 16 59 9 23 15 42 13 44 -2 2 -16
-9 -30 -25z"/>
<path fill="#ff4c74" d="M1410 2933 c-8 -2 -39 -14 -67 -25 -50 -19 -55 -19 -93 -4 -43 17
-65 13 -80 -15 -13 -24 2 -63 45 -110 18 -20 38 -46 44 -57 10 -19 26 -535 26
-857 l0 -160 -31 -55 c-17 -30 -45 -77 -62 -105 -17 -27 -34 -62 -37 -76 -6
-23 -2 -28 25 -38 27 -9 39 -7 80 14 60 30 75 31 131 5 57 -26 103 -26 129 0
23 23 19 36 -26 95 -32 43 -60 120 -79 216 -12 65 -15 142 -14 344 1 143 -2
312 -6 376 -10 159 4 240 57 319 23 36 38 69 36 82 -3 25 -55 58 -78 51z"/>
<path fill="#ff4c74" d="M1526 2915 c-10 -11 -14 -32 -13 -64 2 -42 -3 -54 -35 -96 -43 -54
-48 -89 -17 -105 21 -12 22 -11 115 51 79 53 159 60 227 21 27 -16 77 -101 77
-132 0 -8 -16 -48 -35 -89 -19 -40 -35 -77 -35 -82 0 -5 27 -9 59 -9 41 0 84
-9 139 -29 59 -22 82 -27 91 -18 18 18 13 41 -29 129 -43 91 -67 209 -55 284
4 31 1 46 -12 63 -17 21 -20 21 -58 8 -107 -37 -179 -27 -290 44 -66 41 -104
49 -129 24z"/>
<path fill="#ff4c74" d="M2655 2913 c-10 -9 -26 -36 -36 -60 -19 -44 -24 -48 -134 -90 -44
-17 -50 -22 -50 -48 0 -27 4 -31 45 -41 48 -12 72 -39 90 -106 13 -44 45 -67
66 -46 7 7 19 49 25 93 19 124 53 146 163 105 65 -25 116 -77 141 -146 24 -65
32 -74 64 -74 18 0 34 9 48 29 12 15 51 45 87 67 36 21 68 44 70 51 9 23 -6
43 -33 43 -104 1 -277 77 -395 175 -83 69 -119 81 -151 48z"/>
<path fill="#ff4c74" d="M3801 2901 c-12 -16 -21 -36 -21 -45 0 -30 -46 -64 -109 -82 -105
-29 -118 -80 -28 -103 37 -9 46 -17 64 -53 12 -24 24 -53 28 -66 3 -12 16 -27
27 -33 28 -15 45 7 53 70 11 82 16 100 36 126 25 30 51 32 126 5 72 -25 118
-69 144 -139 11 -31 25 -61 31 -68 17 -20 66 -16 78 7 6 11 44 42 85 70 59 40
75 56 75 75 0 19 -5 25 -22 25 -112 1 -303 85 -411 180 -82 72 -122 80 -156
31z"/>
<path fill="#ff4c74" d="M4750 2815 c-27 -29 -58 -32 -101 -9 -36 18 -68 15 -83 -8 -8 -14 -2
-29 32 -78 62 -87 82 -174 89 -380 5 -163 5 -166 -27 -279 -36 -129 -35 -163
9 -210 36 -39 62 -39 103 -2 l33 29 -5 154 c-3 84 -5 261 -5 393 l0 240 28 59
c32 69 33 78 9 99 -26 24 -55 21 -82 -8z"/>
<path fill="#ff4c74" d="M2371 2614 c-26 -33 -26 -45 -1 -138 24 -85 18 -130 -26 -195 -13
-20 -35 -53 -49 -74 -14 -20 -28 -51 -31 -67 -6 -25 -3 -30 20 -36 15 -3 47
-1 71 6 35 10 54 10 93 0 54 -14 82 -9 82 15 0 9 -16 46 -35 82 -49 93 -47
114 20 178 30 29 55 59 55 67 0 29 -94 157 -126 173 -43 20 -49 19 -73 -11z"/>
<path fill="#ff4c74" d="M3532 2617 c-26 -27 -28 -67 -7 -127 8 -23 15 -66 15 -94 0 -52 -20
-95 -86 -185 -28 -40 -39 -74 -30 -97 5 -13 15 -15 49 -9 58 9 114 9 164 0 61
-11 64 9 19 95 -51 99 -49 128 14 182 28 24 53 51 56 60 5 17 -68 140 -102
170 -34 30 -67 32 -92 5z"/>
<path fill="#ff4c74" d="M3198 2540 c-23 -25 -52 -43 -80 -50 -72 -20 -87 -28 -94 -54 -4 -19
2 -35 25 -64 45 -56 71 -131 71 -206 0 -60 -2 -66 -50 -131 -27 -37 -50 -71
-50 -76 0 -24 16 -39 48 -44 21 -4 47 -8 59 -11 12 -2 32 -23 47 -49 30 -50
60 -59 89 -27 22 24 21 31 -7 83 -51 91 -50 127 7 391 49 231 50 238 32 258
-27 30 -56 24 -97 -20z"/>
<path fill="#ff4c74" d="M4355 2540 c-24 -25 -55 -45 -80 -51 -69 -19 -84 -28 -91 -53 -4 -18
1 -34 19 -58 50 -67 70 -120 75 -198 4 -74 4 -76 -32 -120 -47 -59 -70 -104
-63 -124 4 -9 25 -18 58 -22 55 -7 73 -21 101 -72 20 -38 55 -43 83 -12 18 20
18 22 -9 77 -53 108 -52 128 5 397 l52 240 -23 18 c-33 27 -52 22 -95 -22z"/>
<path fill="#ff4c74" d="M1754 2309 c-40 -55 -71 -75 -133 -85 -41 -6 -41 -6 -60 39 -23 54
-64 70 -106 43 -29 -19 -30 -26 -10 -82 12 -36 12 -48 -3 -102 -16 -61 -16
-61 8 -87 13 -14 31 -25 41 -25 9 0 52 17 95 37 71 34 87 38 160 38 77 0 86
-3 163 -42 90 -48 127 -53 160 -22 49 46 10 86 -118 123 -86 25 -134 57 -115
76 6 6 37 15 70 20 65 11 107 36 112 67 5 34 -21 44 -127 48 l-101 4 -36 -50z"/>
<path fill="#ff4c74" d="M2320 2063 c-28 -10 -50 -36 -50 -58 0 -15 19 -39 56 -71 71 -60 90
-103 98 -219 8 -107 14 -115 102 -115 73 0 102 -17 210 -121 40 -38 79 -69 87
-69 35 0 65 25 105 86 45 69 101 116 160 135 134 43 144 75 52 169 -33 34 -60
65 -60 69 0 5 -16 16 -35 25 -67 32 -100 -13 -89 -120 12 -117 -26 -156 -151
-156 -148 1 -250 81 -270 214 -5 36 -2 56 14 93 40 91 29 115 -53 115 -34 1
-72 7 -86 15 -25 15 -63 18 -90 8z"/>
<path fill="#ff4c74" d="M3464 2056 c-58 -25 -49 -73 22 -124 68 -50 86 -89 93 -204 7 -118
15 -128 99 -128 72 0 103 -17 206 -110 47 -44 95 -80 105 -80 27 0 78 45 101
89 26 51 77 96 135 121 126 55 135 60 135 89 0 20 -20 48 -77 108 -92 96 -112
105 -149 68 -25 -25 -26 -28 -19 -110 l7 -85 -35 -35 c-37 -37 -54 -41 -157
-35 -167 8 -286 179 -220 315 39 81 27 105 -54 105 -34 1 -72 7 -86 15 -31 18
-66 18 -106 1z"/>
<path fill="#ff4c74" d="M1900 1994 c0 -4 14 -50 31 -103 35 -111 33 -144 -13 -197 -84 -95
-174 -97 -290 -4 -55 44 -72 48 -106 24 -30 -21 -29 -70 2 -103 15 -16 32 -56
45 -105 11 -43 24 -83 30 -89 8 -8 25 -6 59 7 90 36 337 116 374 121 63 10 71
25 63 124 -6 81 -5 91 24 163 54 133 43 153 -77 143 -63 -6 -85 -4 -110 9 -18
9 -32 13 -32 10z"/>
<path fill="#ff4c74" d="M3318 1703 c-24 -6 -23 -23 0 -23 24 0 62 -41 66 -71 1 -13 17 -39
35 -57 30 -29 33 -37 28 -75 -2 -23 -8 -50 -12 -60 -6 -15 -4 -16 20 -7 37 14
91 12 107 -4 8 -8 26 -11 44 -9 19 3 36 -1 45 -9 8 -8 35 -18 61 -21 47 -7 47
-6 38 18 -36 95 -68 120 -140 112 -39 -5 -50 -3 -50 8 0 8 5 17 12 21 7 5 4
10 -10 15 -15 6 -22 17 -22 35 l0 27 -24 -23 c-38 -35 -56 -21 -56 44 0 45 -4
58 -22 70 -21 15 -81 19 -120 9z"/>
<path fill="#ff4c74" d="M4725 1597 c-16 -13 -51 -31 -78 -41 -54 -20 -73 -46 -57 -76 9 -16
21 -20 61 -20 40 0 60 -6 94 -30 48 -33 67 -37 84 -16 9 11 6 36 -15 110 -29
106 -37 112 -89 73z"/>
</g>
</svg>
